<svg viewBox="0 0 2000 1400" xmlns="http://www.w3.org/2000/svg"><mask id="b" x="0" y="0" width="2000" height="1400"><path fill="url(#a)" d="M0 0h2000v1400H0z"/></mask><g style="transform-origin:center center" stroke="#ffc727" stroke-width="2" mask="url(#b)"><path fill="none" d="M0 0h100v100H0zM100 0h100v100H100zM200 0h100v100H200z"/><path fill="#ffc72798" d="M300 0h100v100H300z"/><path fill="none" d="M400 0h100v100H400zM500 0h100v100H500zM600 0h100v100H600zM700 0h100v100H700z"/><path fill="#ffc7273d" d="M800 0h100v100H800z"/><path fill="none" d="M900 0h100v100H900zM1000 0h100v100h-100zM1100 0h100v100h-100zM1200 0h100v100h-100zM1300 0h100v100h-100z"/><path fill="#ffc72769" d="M1400 0h100v100h-100z"/><path fill="none" d="M1500 0h100v100h-100zM1600 0h100v100h-100zM1700 0h100v100h-100z"/><path fill="#ffc727be" d="M1800 0h100v100h-100z"/><path fill="none" d="M1900 0h100v100h-100zM0 100h100v100H0zM100 100h100v100H100zM200 100h100v100H200z"/><path fill="#ffc727f0" d="M300 100h100v100H300z"/><path fill="none" d="M400 100h100v100H400z"/><path fill="#ffc72714" d="M500 100h100v100H500z"/><path fill="#ffc727ae" d="M600 100h100v100H600z"/><path fill="#ffc727fc" d="M700 100h100v100H700z"/><path fill="#ffc727e2" d="M800 100h100v100H800z"/><path fill="none" d="M900 100h100v100H900zM1000 100h100v100h-100zM1100 100h100v100h-100z"/><path fill="#ffc72768" d="M1200 100h100v100h-100z"/><path fill="#ffc72743" d="M1300 100h100v100h-100z"/><path fill="none" d="M1400 100h100v100h-100zM1500 100h100v100h-100z"/><path fill="#ffc72778" d="M1600 100h100v100h-100z"/><path fill="none" d="M1700 100h100v100h-100zM1800 100h100v100h-100z"/><path fill="#ffc7270c" d="M1900 100h100v100h-100z"/><path fill="none" d="M0 200h100v100H0z"/><path fill="#ffc72762" d="M100 200h100v100H100z"/><path fill="none" d="M200 200h100v100H200zM300 200h100v100H300zM400 200h100v100H400zM500 200h100v100H500zM600 200h100v100H600zM700 200h100v100H700zM800 200h100v100H800zM900 200h100v100H900z"/><path fill="#ffc7273d" d="M1000 200h100v100h-100z"/><path fill="#ffc727de" d="M1100 200h100v100h-100z"/><path fill="none" d="M1200 200h100v100h-100z"/><path fill="#ffc727b5" d="M1300 200h100v100h-100z"/><path fill="none" d="M1400 200h100v100h-100zM1500 200h100v100h-100z"/><path fill="#ffc72793" d="M1600 200h100v100h-100z"/><path fill="none" d="M1700 200h100v100h-100zM1800 200h100v100h-100zM1900 200h100v100h-100zM0 300h100v100H0zM100 300h100v100H100z"/><path fill="#ffc72767" d="M200 300h100v100H200z"/><path fill="none" d="M300 300h100v100H300zM400 300h100v100H400z"/><path fill="#ffc72707" d="M500 300h100v100H500z"/><path fill="#ffc72789" d="M600 300h100v100H600z"/><path fill="#ffc727ee" d="M700 300h100v100H700z"/><path fill="#ffc7270a" d="M800 300h100v100H800z"/><path fill="none" d="M900 300h100v100H900z"/><path fill="#ffc72789" d="M1000 300h100v100h-100z"/><path fill="none" d="M1100 300h100v100h-100zM1200 300h100v100h-100zM1300 300h100v100h-100zM1400 300h100v100h-100zM1500 300h100v100h-100zM1600 300h100v100h-100zM1700 300h100v100h-100zM1800 300h100v100h-100zM1900 300h100v100h-100zM0 400h100v100H0z"/><path fill="#ffc727ca" d="M100 400h100v100H100z"/><path fill="none" d="M200 400h100v100H200zM300 400h100v100H300zM400 400h100v100H400zM500 400h100v100H500z"/><path fill="#ffc727b2" d="M600 400h100v100H600z"/><path fill="none" d="M700 400h100v100H700zM800 400h100v100H800zM900 400h100v100H900zM1000 400h100v100h-100zM1100 400h100v100h-100z"/><path fill="#ffc72778" d="M1200 400h100v100h-100z"/><path fill="#ffc7273e" d="M1300 400h100v100h-100z"/><path fill="#ffc727a6" d="M1400 400h100v100h-100z"/><path fill="none" d="M1500 400h100v100h-100zM1600 400h100v100h-100zM1700 400h100v100h-100zM1800 400h100v100h-100zM1900 400h100v100h-100zM0 500h100v100H0z"/><path fill="#ffc7277d" d="M100 500h100v100H100z"/><path fill="none" d="M200 500h100v100H200z"/><path fill="#ffc727d0" d="M300 500h100v100H300z"/><path fill="none" d="M400 500h100v100H400z"/><path fill="#ffc727fc" d="M500 500h100v100H500z"/><path fill="none" d="M600 500h100v100H600z"/><path fill="#ffc72713" d="M700 500h100v100H700z"/><path fill="none" d="M800 500h100v100H800z"/><path fill="#ffc727a9" d="M900 500h100v100H900z"/><path fill="none" d="M1000 500h100v100h-100z"/><path fill="#ffc7275c" d="M1100 500h100v100h-100z"/><path fill="none" d="M1200 500h100v100h-100z"/><path fill="#ffc727fb" d="M1300 500h100v100h-100z"/><path fill="none" d="M1400 500h100v100h-100zM1500 500h100v100h-100zM1600 500h100v100h-100z"/><path fill="#ffc727bd" d="M1700 500h100v100h-100z"/><path fill="none" d="M1800 500h100v100h-100zM1900 500h100v100h-100zM0 600h100v100H0zM100 600h100v100H100zM200 600h100v100H200z"/><path fill="#ffc7275e" d="M300 600h100v100H300z"/><path fill="none" d="M400 600h100v100H400z"/><path fill="#ffc7275b" d="M500 600h100v100H500z"/><path fill="none" d="M600 600h100v100H600z"/><path fill="#ffc727b7" d="M700 600h100v100H700z"/><path fill="none" d="M800 600h100v100H800zM900 600h100v100H900z"/><path fill="#ffc727aa" d="M1000 600h100v100h-100z"/><path fill="none" d="M1100 600h100v100h-100zM1200 600h100v100h-100z"/><path fill="#ffc727d2" d="M1300 600h100v100h-100z"/><path fill="none" d="M1400 600h100v100h-100zM1500 600h100v100h-100z"/><path fill="#ffc72778" d="M1600 600h100v100h-100z"/><path fill="none" d="M1700 600h100v100h-100zM1800 600h100v100h-100zM1900 600h100v100h-100zM0 700h100v100H0zM100 700h100v100H100zM200 700h100v100H200zM300 700h100v100H300z"/><path fill="#ffc72795" d="M400 700h100v100H400z"/><path fill="#ffc727ea" d="M500 700h100v100H500z"/><path fill="#ffc727d6" d="M600 700h100v100H600z"/><path fill="none" d="M700 700h100v100H700zM800 700h100v100H800zM900 700h100v100H900zM1000 700h100v100h-100zM1100 700h100v100h-100zM1200 700h100v100h-100zM1300 700h100v100h-100zM1400 700h100v100h-100zM1500 700h100v100h-100zM1600 700h100v100h-100zM1700 700h100v100h-100zM1800 700h100v100h-100z"/><path fill="#ffc727b7" d="M1900 700h100v100h-100z"/><path fill="#ffc72782" d="M0 800h100v100H0z"/><path fill="#ffc727ef" d="M100 800h100v100H100z"/><path fill="none" d="M200 800h100v100H200zM300 800h100v100H300z"/><path fill="#ffc727f8" d="M400 800h100v100H400z"/><path fill="none" d="M500 800h100v100H500zM600 800h100v100H600z"/><path fill="#ffc72752" d="M700 800h100v100H700z"/><path fill="none" d="M800 800h100v100H800zM900 800h100v100H900zM1000 800h100v100h-100zM1100 800h100v100h-100zM1200 800h100v100h-100zM1300 800h100v100h-100zM1400 800h100v100h-100zM1500 800h100v100h-100zM1600 800h100v100h-100z"/><path fill="#ffc7274c" d="M1700 800h100v100h-100z"/><path fill="none" d="M1800 800h100v100h-100z"/><path fill="#ffc7271b" d="M1900 800h100v100h-100z"/><path fill="#ffc7271f" d="M0 900h100v100H0z"/><path fill="#ffc7273a" d="M100 900h100v100H100z"/><path fill="none" d="M200 900h100v100H200zM300 900h100v100H300zM400 900h100v100H400z"/><path fill="#ffc727d3" d="M500 900h100v100H500z"/><path fill="none" d="M600 900h100v100H600zM700 900h100v100H700zM800 900h100v100H800z"/><path fill="#ffc727d8" d="M900 900h100v100H900z"/><path fill="#ffc72751" d="M1000 900h100v100h-100z"/><path fill="none" d="M1100 900h100v100h-100zM1200 900h100v100h-100zM1300 900h100v100h-100z"/><path fill="#ffc72708" d="M1400 900h100v100h-100z"/><path fill="none" d="M1500 900h100v100h-100z"/><path fill="#ffc72793" d="M1600 900h100v100h-100z"/><path fill="none" d="M1700 900h100v100h-100zM1800 900h100v100h-100zM1900 900h100v100h-100zM0 1000h100v100H0zM100 1000h100v100H100z"/><path fill="#ffc727d1" d="M200 1000h100v100H200z"/><path fill="none" d="M300 1000h100v100H300zM400 1000h100v100H400zM500 1000h100v100H500zM600 1000h100v100H600z"/><path fill="#ffc727c6" d="M700 1000h100v100H700z"/><path fill="none" d="M800 1000h100v100H800zM900 1000h100v100H900z"/><path fill="#ffc72795" d="M1000 1000h100v100h-100z"/><path fill="#ffc727de" d="M1100 1000h100v100h-100z"/><path fill="none" d="M1200 1000h100v100h-100zM1300 1000h100v100h-100zM1400 1000h100v100h-100zM1500 1000h100v100h-100zM1600 1000h100v100h-100zM1700 1000h100v100h-100z"/><path fill="#ffc72738" d="M1800 1000h100v100h-100z"/><path fill="none" d="M1900 1000h100v100h-100zM0 1100h100v100H0zM100 1100h100v100H100zM200 1100h100v100H200zM300 1100h100v100H300z"/><path fill="#ffc72781" d="M400 1100h100v100H400z"/><path fill="none" d="M500 1100h100v100H500zM600 1100h100v100H600zM700 1100h100v100H700zM800 1100h100v100H800z"/><path fill="#ffc72706" d="M900 1100h100v100H900z"/><path fill="none" d="M1000 1100h100v100h-100z"/><path fill="#ffc72730" d="M1100 1100h100v100h-100z"/><path fill="#ffc7275f" d="M1200 1100h100v100h-100z"/><path fill="#ffc72767" d="M1300 1100h100v100h-100z"/><path fill="none" d="M1400 1100h100v100h-100zM1500 1100h100v100h-100zM1600 1100h100v100h-100z"/><path fill="#ffc72702" d="M1700 1100h100v100h-100z"/><path fill="none" d="M1800 1100h100v100h-100z"/><path fill="#ffc7275a" d="M1900 1100h100v100h-100z"/><path fill="none" d="M0 1200h100v100H0z"/><path fill="#ffc72756" d="M100 1200h100v100H100z"/><path fill="none" d="M200 1200h100v100H200zM300 1200h100v100H300z"/><path fill="#ffc727af" d="M400 1200h100v100H400z"/><path fill="#ffc72780" d="M500 1200h100v100H500z"/><path fill="#ffc7277a" d="M600 1200h100v100H600z"/><path fill="none" d="M700 1200h100v100H700zM800 1200h100v100H800z"/><path fill="#ffc72771" d="M900 1200h100v100H900z"/><path fill="none" d="M1000 1200h100v100h-100zM1100 1200h100v100h-100zM1200 1200h100v100h-100zM1300 1200h100v100h-100zM1400 1200h100v100h-100z"/><path fill="#ffc72791" d="M1500 1200h100v100h-100z"/><path fill="none" d="M1600 1200h100v100h-100zM1700 1200h100v100h-100z"/><path fill="#ffc727a4" d="M1800 1200h100v100h-100z"/><path fill="none" d="M1900 1200h100v100h-100zM0 1300h100v100H0zM100 1300h100v100H100zM200 1300h100v100H200z"/><path fill="#ffc72767" d="M300 1300h100v100H300z"/><path fill="none" d="M400 1300h100v100H400z"/><path fill="#ffc727b4" d="M500 1300h100v100H500z"/><path fill="#ffc7271f" d="M600 1300h100v100H600z"/><path fill="none" d="M700 1300h100v100H700zM800 1300h100v100H800z"/><path fill="#ffc72758" d="M900 1300h100v100H900z"/><path fill="none" d="M1000 1300h100v100h-100zM1100 1300h100v100h-100zM1200 1300h100v100h-100z"/><path fill="#ffc7273b" d="M1300 1300h100v100h-100z"/><path fill="#ffc72720" d="M1400 1300h100v100h-100z"/><path fill="none" d="M1500 1300h100v100h-100zM1600 1300h100v100h-100zM1700 1300h100v100h-100zM1800 1300h100v100h-100zM1900 1300h100v100h-100z"/></g><defs><radialGradient id="a"><stop offset="0" stop-color="#fff"/><stop offset="1" stop-color="#fff" stop-opacity="0"/></radialGradient></defs></svg>