<?xml version="1.0" standalone="no"?>
<!DOCTYPE svg PUBLIC "-//W3C//DTD SVG 20010904//EN"
 "http://www.w3.org/TR/2001/REC-SVG-20010904/DTD/svg10.dtd">
<svg version="1.0" xmlns="http://www.w3.org/2000/svg"
 width="587.000000pt" height="822.000000pt" viewBox="0 0 587.000000 822.000000"
 preserveAspectRatio="xMidYMid meet">

<g transform="translate(0.000000,822.000000) scale(0.100000,-0.100000)"
fill="#000000" stroke="none">
<path d="M1475 8195 c-284 -62 -512 -285 -585 -570 -20 -76 -20 -113 -20
-1551 l0 -1473 -207 -158 c-228 -172 -319 -257 -409 -378 -181 -245 -274 -581
-244 -878 20 -199 80 -385 174 -542 30 -50 289 -379 626 -797 l575 -710 5
-332 c5 -330 5 -331 32 -406 70 -191 222 -331 413 -380 76 -20 110 -20 1524
-20 1602 0 1495 -4 1639 66 91 44 202 152 250 241 63 120 72 181 72 506 l0
289 63 87 c256 348 415 759 469 1206 10 85 13 371 13 1260 l0 1150 -22 79
c-86 300 -301 505 -599 572 -117 26 -331 16 -442 -20 -46 -15 -85 -26 -86 -24
-1 2 -16 42 -33 90 -80 224 -272 404 -513 480 -66 20 -95 23 -240 23 -145 0
-174 -3 -240 -24 -41 -12 -92 -32 -113 -42 l-37 -20 -10 26 c-14 36 -75 130
-119 182 -53 65 -163 148 -246 188 -120 58 -210 77 -365 77 -132 0 -157 -4
-307 -48 l-23 -6 0 586 c0 637 -2 666 -57 804 -66 165 -209 320 -367 397 -133
66 -221 85 -380 84 -72 0 -158 -7 -191 -14z m349 -484 c26 -13 63 -39 82 -58
19 -18 46 -57 62 -86 l27 -52 5 -1741 5 -1741 30 -49 c19 -30 49 -60 79 -79
43 -26 59 -30 121 -30 62 0 78 4 121 30 30 19 60 49 79 79 l30 49 5 831 5 831
28 57 c30 61 74 105 140 140 37 20 57 23 157 23 100 0 120 -3 157 -23 66 -35
110 -79 140 -140 l28 -57 5 -830 5 -830 28 -48 c33 -56 99 -102 159 -112 97
-17 201 32 248 115 l25 45 5 640 5 640 27 52 c34 64 86 115 147 145 39 20 62
23 151 23 91 0 112 -3 154 -24 63 -31 122 -90 150 -150 21 -45 21 -58 26 -687
l5 -641 30 -49 c19 -30 49 -60 79 -79 43 -26 59 -30 121 -30 62 0 78 4 121 30
30 19 60 49 79 79 l30 49 5 366 c5 355 6 367 28 416 29 63 83 119 147 153 45
24 60 27 155 27 95 0 111 -3 162 -28 61 -30 105 -74 140 -140 l23 -42 3 -1120
c2 -773 -1 -1151 -8 -1220 -43 -383 -188 -737 -428 -1043 -42 -53 -82 -113
-88 -132 -10 -25 -13 -125 -14 -368 0 -368 -1 -375 -63 -412 -31 -20 -61 -20
-1432 -20 -1387 0 -1400 0 -1433 20 -60 37 -62 53 -62 426 0 228 -4 349 -12
376 -8 27 -189 258 -607 776 -328 405 -612 759 -630 785 -48 70 -89 166 -112
265 -28 116 -23 311 11 417 30 94 90 209 148 281 44 55 188 184 205 184 4 0 7
-156 7 -347 0 -394 1 -398 79 -464 128 -111 320 -59 376 102 13 36 15 322 15
2118 0 1382 4 2088 10 2113 24 86 118 182 204 208 17 5 74 8 126 7 77 -2 104
-6 144 -26z"/>
</g>
</svg>
