<?xml version="1.0" standalone="no"?>
<!DOCTYPE svg PUBLIC "-//W3C//DTD SVG 20010904//EN"
 "http://www.w3.org/TR/2001/REC-SVG-20010904/DTD/svg10.dtd">
<svg version="1.0" xmlns="http://www.w3.org/2000/svg"
 width="587.000000pt" height="822.000000pt" viewBox="0 0 587.000000 822.000000"
 preserveAspectRatio="xMidYMid meet">

<g transform="translate(0.000000,822.000000) scale(0.100000,-0.100000)"
fill="#000000" stroke="none">
<path d="M1475 8195 c-284 -62 -512 -285 -585 -570 -20 -76 -20 -113 -20
-1551 l0 -1473 -207 -158 c-228 -172 -319 -257 -409 -378 -181 -245 -274 -581
-244 -878 20 -199 80 -385 174 -542 30 -50 289 -379 626 -797 l575 -710 5
-332 c5 -330 5 -331 32 -406 70 -191 222 -331 413 -380 76 -20 110 -20 1524
-20 1602 0 1495 -4 1639 66 91 44 202 152 250 241 63 120 72 181 72 506 l0
289 63 87 c256 348 415 759 469 1206 10 85 13 371 13 1260 l0 1150 -22 79
c-86 300 -301 505 -599 572 -117 26 -331 16 -442 -20 -46 -15 -85 -26 -86 -24
-1 2 -16 42 -33 90 -80 224 -272 404 -513 480 -66 20 -95 23 -240 23 -145 0
-174 -3 -240 -24 -41 -12 -92 -32 -113 -42 l-37 -20 -10 26 c-14 36 -75 130
-119 182 -53 65 -163 148 -246 188 -120 58 -210 77 -365 77 -132 0 -157 -4
-307 -48 l-23 -6 0 586 c0 637 -2 666 -57 804 -66 165 -209 320 -367 397 -133
66 -221 85 -380 84 -72 0 -158 -7 -191 -14z m353 -485 c68 -35 115 -82 146
-149 l21 -46 5 -1735 c6 -1934 -1 -1768 76 -1843 37 -35 110 -67 156 -67 50 0
111 25 154 63 84 74 78 8 84 942 l5 830 23 45 c30 58 75 105 132 138 39 23 58
27 146 30 163 6 252 -38 319 -159 l30 -54 5 -830 c4 -608 8 -837 17 -856 18
-42 73 -98 114 -119 110 -57 244 -18 307 89 l27 46 5 645 5 645 23 42 c33 63
74 106 134 139 50 27 59 29 168 29 100 0 120 -3 157 -23 63 -33 106 -74 139
-134 l29 -53 5 -640 c6 -721 1 -679 84 -752 43 -38 104 -63 154 -63 46 0 119
32 156 67 71 69 70 66 76 473 5 361 5 366 29 414 30 60 85 117 143 148 34 17
64 23 144 26 94 4 106 2 163 -24 41 -18 77 -44 106 -76 81 -90 76 1 73 -1319
-3 -1090 -5 -1181 -22 -1269 -62 -321 -194 -622 -380 -865 -45 -59 -92 -125
-106 -148 l-25 -42 -5 -358 -5 -359 -37 -34 -38 -34 -1415 0 -1415 0 -38 34
-37 34 -5 374 c-4 326 -7 377 -22 404 -9 17 -290 368 -623 780 -560 692 -610
757 -655 849 -26 55 -53 122 -60 150 -66 282 6 563 197 766 59 62 151 139 167
139 3 0 6 -154 6 -342 0 -324 2 -346 21 -388 25 -56 53 -86 101 -111 117 -60
257 -14 321 105 l22 41 5 2110 5 2110 23 47 c29 59 108 131 165 151 25 9 80
16 138 16 88 1 101 -2 157 -29z"/>
</g>
</svg>
