<svg viewBox="0 0 2000 1400" xmlns="http://www.w3.org/2000/svg"><mask id="b" x="0" y="0" width="2000" height="1400"><path fill="url(#a)" d="M0 0h2000v1400H0z"/></mask><path fill="#0d0f12" d="M0 0h2000v1400H0z"/><g style="transform-origin:center center" stroke="#444548" stroke-width="2" mask="url(#b)"><path fill="#44454857" d="M0 0h100v100H0z"/><path fill="none" d="M100 0h100v100H100z"/><path fill="#444548b2" d="M200 0h100v100H200z"/><path fill="none" d="M300 0h100v100H300zM400 0h100v100H400z"/><path fill="#44454817" d="M500 0h100v100H500z"/><path fill="none" d="M600 0h100v100H600zM700 0h100v100H700zM800 0h100v100H800zM900 0h100v100H900zM1000 0h100v100h-100zM1100 0h100v100h-100zM1200 0h100v100h-100zM1300 0h100v100h-100zM1400 0h100v100h-100zM1500 0h100v100h-100zM1600 0h100v100h-100z"/><path fill="#444548fa" d="M1700 0h100v100h-100z"/><path fill="#44454842" d="M1800 0h100v100h-100z"/><path fill="none" d="M1900 0h100v100h-100zM0 100h100v100H0zM100 100h100v100H100z"/><path fill="#444548c3" d="M200 100h100v100H200z"/><path fill="none" d="M300 100h100v100H300zM400 100h100v100H400zM500 100h100v100H500z"/><path fill="#44454848" d="M600 100h100v100H600z"/><path fill="#444548c5" d="M700 100h100v100H700z"/><path fill="none" d="M800 100h100v100H800z"/><path fill="#444548f5" d="M900 100h100v100H900z"/><path fill="none" d="M1000 100h100v100h-100z"/><path fill="#4445489c" d="M1100 100h100v100h-100z"/><path fill="#444548dc" d="M1200 100h100v100h-100z"/><path fill="none" d="M1300 100h100v100h-100zM1400 100h100v100h-100zM1500 100h100v100h-100zM1600 100h100v100h-100zM1700 100h100v100h-100zM1800 100h100v100h-100zM1900 100h100v100h-100z"/><path fill="#44454846" d="M0 200h100v100H0z"/><path fill="none" d="M100 200h100v100H100zM200 200h100v100H200z"/><path fill="#444548f0" d="M300 200h100v100H300z"/><path fill="none" d="M400 200h100v100H400z"/><path fill="#4445484f" d="M500 200h100v100H500z"/><path fill="none" d="M600 200h100v100H600zM700 200h100v100H700zM800 200h100v100H800zM900 200h100v100H900zM1000 200h100v100h-100z"/><path fill="#44454805" d="M1100 200h100v100h-100z"/><path fill="none" d="M1200 200h100v100h-100zM1300 200h100v100h-100z"/><path fill="#4445484f" d="M1400 200h100v100h-100z"/><path fill="none" d="M1500 200h100v100h-100z"/><path fill="#44454824" d="M1600 200h100v100h-100z"/><path fill="#444548a8" d="M1700 200h100v100h-100z"/><path fill="none" d="M1800 200h100v100h-100z"/><path fill="#444548fe" d="M1900 200h100v100h-100z"/><path fill="#44454880" d="M0 300h100v100H0z"/><path fill="none" d="M100 300h100v100H100zM200 300h100v100H200z"/><path fill="#4445485f" d="M300 300h100v100H300z"/><path fill="#444548f9" d="M400 300h100v100H400z"/><path fill="#4445482f" d="M500 300h100v100H500z"/><path fill="none" d="M600 300h100v100H600z"/><path fill="#444548d9" d="M700 300h100v100H700z"/><path fill="none" d="M800 300h100v100H800z"/><path fill="#444548a2" d="M900 300h100v100H900z"/><path fill="#4445486a" d="M1000 300h100v100h-100z"/><path fill="none" d="M1100 300h100v100h-100z"/><path fill="#444548cf" d="M1200 300h100v100h-100z"/><path fill="none" d="M1300 300h100v100h-100z"/><path fill="#4445485a" d="M1400 300h100v100h-100z"/><path fill="none" d="M1500 300h100v100h-100z"/><path fill="#4445482c" d="M1600 300h100v100h-100z"/><path fill="none" d="M1700 300h100v100h-100zM1800 300h100v100h-100zM1900 300h100v100h-100zM0 400h100v100H0zM100 400h100v100H100z"/><path fill="#444548b0" d="M200 400h100v100H200z"/><path fill="none" d="M300 400h100v100H300z"/><path fill="#44454846" d="M400 400h100v100H400z"/><path fill="none" d="M500 400h100v100H500zM600 400h100v100H600z"/><path fill="#444548c3" d="M700 400h100v100H700z"/><path fill="none" d="M800 400h100v100H800zM900 400h100v100H900zM1000 400h100v100h-100zM1100 400h100v100h-100zM1200 400h100v100h-100zM1300 400h100v100h-100z"/><path fill="#4445487d" d="M1400 400h100v100h-100z"/><path fill="none" d="M1500 400h100v100h-100z"/><path fill="#44454884" d="M1600 400h100v100h-100z"/><path fill="none" d="M1700 400h100v100h-100zM1800 400h100v100h-100zM1900 400h100v100h-100z"/><path fill="#44454817" d="M0 500h100v100H0z"/><path fill="none" d="M100 500h100v100H100zM200 500h100v100H200zM300 500h100v100H300zM400 500h100v100H400z"/><path fill="#44454860" d="M500 500h100v100H500z"/><path fill="#444548b5" d="M600 500h100v100H600z"/><path fill="#444548f8" d="M700 500h100v100H700z"/><path fill="none" d="M800 500h100v100H800z"/><path fill="#4445483c" d="M900 500h100v100H900z"/><path fill="none" d="M1000 500h100v100h-100zM1100 500h100v100h-100zM1200 500h100v100h-100zM1300 500h100v100h-100zM1400 500h100v100h-100zM1500 500h100v100h-100zM1600 500h100v100h-100zM1700 500h100v100h-100zM1800 500h100v100h-100z"/><path fill="#444548ad" d="M1900 500h100v100h-100z"/><path fill="none" d="M0 600h100v100H0zM100 600h100v100H100z"/><path fill="#444548fd" d="M200 600h100v100H200z"/><path fill="#44454892" d="M300 600h100v100H300z"/><path fill="none" d="M400 600h100v100H400zM500 600h100v100H500zM600 600h100v100H600zM700 600h100v100H700zM800 600h100v100H800z"/><path fill="#44454810" d="M900 600h100v100H900z"/><path fill="none" d="M1000 600h100v100h-100zM1100 600h100v100h-100zM1200 600h100v100h-100zM1300 600h100v100h-100zM1400 600h100v100h-100z"/><path fill="#44454845" d="M1500 600h100v100h-100z"/><path fill="none" d="M1600 600h100v100h-100zM1700 600h100v100h-100zM1800 600h100v100h-100z"/><path fill="#444548b6" d="M1900 600h100v100h-100z"/><path fill="none" d="M0 700h100v100H0z"/><path fill="#444548bc" d="M100 700h100v100H100z"/><path fill="none" d="M200 700h100v100H200zM300 700h100v100H300zM400 700h100v100H400z"/><path fill="#44454857" d="M500 700h100v100H500z"/><path fill="none" d="M600 700h100v100H600zM700 700h100v100H700z"/><path fill="#444548cc" d="M800 700h100v100H800z"/><path fill="none" d="M900 700h100v100H900zM1000 700h100v100h-100z"/><path fill="#44454830" d="M1100 700h100v100h-100z"/><path fill="none" d="M1200 700h100v100h-100zM1300 700h100v100h-100zM1400 700h100v100h-100zM1500 700h100v100h-100zM1600 700h100v100h-100zM1700 700h100v100h-100zM1800 700h100v100h-100zM1900 700h100v100h-100zM0 800h100v100H0zM100 800h100v100H100z"/><path fill="#444548cb" d="M200 800h100v100H200z"/><path fill="#44454868" d="M300 800h100v100H300z"/><path fill="#4445482f" d="M400 800h100v100H400z"/><path fill="none" d="M500 800h100v100H500zM600 800h100v100H600zM700 800h100v100H700zM800 800h100v100H800zM900 800h100v100H900z"/><path fill="#444548ad" d="M1000 800h100v100h-100z"/><path fill="none" d="M1100 800h100v100h-100zM1200 800h100v100h-100z"/><path fill="#444548dd" d="M1300 800h100v100h-100z"/><path fill="none" d="M1400 800h100v100h-100z"/><path fill="#44454859" d="M1500 800h100v100h-100z"/><path fill="none" d="M1600 800h100v100h-100z"/><path fill="#444548f5" d="M1700 800h100v100h-100z"/><path fill="none" d="M1800 800h100v100h-100zM1900 800h100v100h-100zM0 900h100v100H0zM100 900h100v100H100zM200 900h100v100H200z"/><path fill="#444548ca" d="M300 900h100v100H300z"/><path fill="#44454890" d="M400 900h100v100H400z"/><path fill="none" d="M500 900h100v100H500zM600 900h100v100H600z"/><path fill="#4445481f" d="M700 900h100v100H700z"/><path fill="none" d="M800 900h100v100H800z"/><path fill="#444548e8" d="M900 900h100v100H900z"/><path fill="none" d="M1000 900h100v100h-100zM1100 900h100v100h-100z"/><path fill="#4445482c" d="M1200 900h100v100h-100z"/><path fill="#444548b9" d="M1300 900h100v100h-100z"/><path fill="none" d="M1400 900h100v100h-100z"/><path fill="#44454830" d="M1500 900h100v100h-100z"/><path fill="none" d="M1600 900h100v100h-100z"/><path fill="#44454889" d="M1700 900h100v100h-100z"/><path fill="none" d="M1800 900h100v100h-100zM1900 900h100v100h-100zM0 1000h100v100H0z"/><path fill="#444548e7" d="M100 1000h100v100H100z"/><path fill="none" d="M200 1000h100v100H200z"/><path fill="#44454839" d="M300 1000h100v100H300z"/><path fill="#44454860" d="M400 1000h100v100H400z"/><path fill="none" d="M500 1000h100v100H500zM600 1000h100v100H600zM700 1000h100v100H700zM800 1000h100v100H800zM900 1000h100v100H900zM1000 1000h100v100h-100z"/><path fill="#44454889" d="M1100 1000h100v100h-100z"/><path fill="none" d="M1200 1000h100v100h-100zM1300 1000h100v100h-100zM1400 1000h100v100h-100zM1500 1000h100v100h-100z"/><path fill="#44454849" d="M1600 1000h100v100h-100z"/><path fill="none" d="M1700 1000h100v100h-100z"/><path fill="#4445489e" d="M1800 1000h100v100h-100z"/><path fill="none" d="M1900 1000h100v100h-100z"/><path fill="#444548dd" d="M0 1100h100v100H0z"/><path fill="none" d="M100 1100h100v100H100zM200 1100h100v100H200zM300 1100h100v100H300z"/><path fill="#44454814" d="M400 1100h100v100H400z"/><path fill="none" d="M500 1100h100v100H500zM600 1100h100v100H600zM700 1100h100v100H700zM800 1100h100v100H800zM900 1100h100v100H900zM1000 1100h100v100h-100zM1100 1100h100v100h-100z"/><path fill="#444548cd" d="M1200 1100h100v100h-100z"/><path fill="none" d="M1300 1100h100v100h-100zM1400 1100h100v100h-100z"/><path fill="#44454849" d="M1500 1100h100v100h-100z"/><path fill="none" d="M1600 1100h100v100h-100z"/><path fill="#44454875" d="M1700 1100h100v100h-100z"/><path fill="#444548d7" d="M1800 1100h100v100h-100z"/><path fill="#44454895" d="M1900 1100h100v100h-100z"/><path fill="#44454821" d="M0 1200h100v100H0z"/><path fill="none" d="M100 1200h100v100H100z"/><path fill="#4445480c" d="M200 1200h100v100H200z"/><path fill="none" d="M300 1200h100v100H300zM400 1200h100v100H400zM500 1200h100v100H500zM600 1200h100v100H600zM700 1200h100v100H700z"/><path fill="#4445482b" d="M800 1200h100v100H800z"/><path fill="#4445486c" d="M900 1200h100v100H900z"/><path fill="#444548b3" d="M1000 1200h100v100h-100z"/><path fill="none" d="M1100 1200h100v100h-100zM1200 1200h100v100h-100zM1300 1200h100v100h-100zM1400 1200h100v100h-100zM1500 1200h100v100h-100zM1600 1200h100v100h-100zM1700 1200h100v100h-100zM1800 1200h100v100h-100zM1900 1200h100v100h-100zM0 1300h100v100H0z"/><path fill="#4445480d" d="M100 1300h100v100H100z"/><path fill="none" d="M200 1300h100v100H200zM300 1300h100v100H300zM400 1300h100v100H400zM500 1300h100v100H500zM600 1300h100v100H600zM700 1300h100v100H700zM800 1300h100v100H800zM900 1300h100v100H900zM1000 1300h100v100h-100zM1100 1300h100v100h-100zM1200 1300h100v100h-100z"/><path fill="#44454842" d="M1300 1300h100v100h-100z"/><path fill="#4445487e" d="M1400 1300h100v100h-100z"/><path fill="none" d="M1500 1300h100v100h-100zM1600 1300h100v100h-100zM1700 1300h100v100h-100zM1800 1300h100v100h-100zM1900 1300h100v100h-100z"/></g><defs><radialGradient id="a"><stop offset="0" stop-color="#fff"/><stop offset="1" stop-color="#fff" stop-opacity="0"/></radialGradient></defs></svg>